<svg width="58" height="58" viewBox="0 0 58 58" fill="none" xmlns="http://www.w3.org/2000/svg">
<path d="M12.566 48.333C10.9644 48.333 9.66602 49.6314 9.66602 51.233C9.66602 52.8346 10.9644 54.133 12.566 54.133C14.1676 54.133 15.466 52.8346 15.466 51.233C15.466 49.6314 14.1676 48.333 12.566 48.333ZM12.566 52.1997C12.0321 52.1997 11.5993 51.7669 11.5993 51.233C11.5993 50.6991 12.0321 50.2663 12.566 50.2663C13.0999 50.2663 13.5327 50.6991 13.5327 51.233C13.5327 51.7669 13.0999 52.1997 12.566 52.1997Z" fill="#D7B65D"/>
<path d="M44.4664 48.333C42.8648 48.333 41.5664 49.6314 41.5664 51.233C41.5664 52.8346 42.8648 54.133 44.4664 54.133C46.068 54.133 47.3664 52.8346 47.3664 51.233C47.3664 49.6314 46.068 48.333 44.4664 48.333ZM44.4664 52.1997C43.9325 52.1997 43.4997 51.7669 43.4997 51.233C43.4997 50.6991 43.9325 50.2663 44.4664 50.2663C45.0003 50.2663 45.4331 50.6991 45.4331 51.233C45.4331 51.7669 45.0003 52.1997 44.4664 52.1997Z" fill="#D7B65D"/>
<path d="M50.2667 23.2002H47.9467C49.5065 15.5186 46.2739 7.65545 39.7624 3.29207C33.2509 -1.07131 24.7492 -1.07131 18.2376 3.29207C11.7261 7.65545 8.49353 15.5186 10.0533 23.2002H5.8C2.59807 23.2033 0.00319716 25.7982 2.29513e-08 29.0002V46.4002C-0.00013792 47.9519 0.621536 49.439 1.72603 50.529C2.83052 51.6189 4.32572 52.2208 5.87733 52.2002C6.35515 55.5272 9.20547 57.9974 12.5667 57.9974C15.9279 57.9974 18.7782 55.5272 19.256 52.2002H37.7773C38.2552 55.5272 41.1055 57.9974 44.4667 57.9974C47.8279 57.9974 50.6782 55.5272 51.156 52.2002H55.1C56.7016 52.2002 58 50.9018 58 49.3002V30.9335C57.9952 26.6645 54.5357 23.2049 50.2667 23.2002ZM37.3713 36.7335C39.7044 35.6065 41.7882 34.024 43.5 32.079V36.7335H37.3713ZM45.4333 29.4671C45.53 29.3124 45.6267 29.1577 45.7175 29.0002H49.3C50.3677 29.0002 51.2333 29.8657 51.2333 30.9335V39.6335H47.3667C46.2989 39.6335 45.4333 38.7679 45.4333 37.7002V29.4671ZM29 1.93348C38.6098 1.93348 46.4 9.72373 46.4 19.3335C46.4 28.9432 38.6098 36.7335 29 36.7335C19.3902 36.7335 11.6 28.9432 11.6 19.3335C11.6107 9.72815 19.3947 1.94414 29 1.93348ZM9.66667 36.7335C8.06504 36.7335 6.76667 35.4351 6.76667 33.8335V29.0002H12.2825C12.6624 29.6519 13.0801 30.281 13.5333 30.8842V36.7335H9.66667ZM15.4667 33.1172C16.9787 34.5959 18.7224 35.8175 20.6287 36.7335H15.4667V33.1172ZM12.5667 56.0668C9.89729 56.0668 7.73333 53.9029 7.73333 51.2335C7.73333 48.5641 9.89729 46.4002 12.5667 46.4002C15.236 46.4002 17.4 48.5641 17.4 51.2335C17.3968 53.9015 15.2347 56.0636 12.5667 56.0668ZM44.4667 56.0668C41.7973 56.0668 39.6333 53.9029 39.6333 51.2335C39.6333 48.5641 41.7973 46.4002 44.4667 46.4002C47.136 46.4002 49.3 48.5641 49.3 51.2335C49.2968 53.9015 47.1347 56.0636 44.4667 56.0668ZM56.0667 46.4002H54.1333V44.4668H56.0667V46.4002ZM56.0667 42.5335H54.1333C53.0656 42.5335 52.2 43.3991 52.2 44.4668V46.4002C52.2 47.4679 53.0656 48.3335 54.1333 48.3335H56.0667V49.3002C56.0667 49.834 55.6339 50.2668 55.1 50.2668H51.156C50.6782 46.9398 47.8279 44.4696 44.4667 44.4696C41.1055 44.4696 38.2552 46.9398 37.7773 50.2668H19.256C18.7782 46.9398 15.9279 44.4696 12.5667 44.4696C9.20547 44.4696 6.35515 46.9398 5.87733 50.2668C4.8385 50.2876 3.83501 49.8894 3.09306 49.162C2.3511 48.4346 1.93313 47.4392 1.93333 46.4002V29.0002C1.93333 26.8647 3.6645 25.1335 5.8 25.1335H10.5579C10.7678 25.7907 11.013 26.4361 11.2926 27.0668H6.76667C5.69892 27.0668 4.83333 27.9324 4.83333 29.0002V33.8335C4.83653 36.5015 6.99862 38.6636 9.66667 38.6668H43.6373C44.0767 40.3688 45.6089 41.5602 47.3667 41.5668H51.2333C52.3011 41.5668 53.1667 40.7012 53.1667 39.6335V30.9335C53.1667 28.798 51.4355 27.0668 49.3 27.0668H46.7074C46.987 26.4361 47.2322 25.7907 47.4421 25.1335H50.2667C53.4686 25.1367 56.0635 27.7316 56.0667 30.9335V42.5335Z" fill="#D7B65D"/>
<path d="M40.6005 40.5996H4.83385C4.29998 40.5996 3.86719 41.0324 3.86719 41.5663C3.86719 42.1002 4.29998 42.5329 4.83385 42.5329H40.6005C41.1344 42.5329 41.5672 42.1002 41.5672 41.5663C41.5672 41.0324 41.1344 40.5996 40.6005 40.5996Z" fill="#D7B65D"/>
<path d="M28.9996 16.4338C30.6012 16.4338 31.8996 15.1354 31.8996 13.5338C31.8996 11.9322 30.6012 10.6338 28.9996 10.6338C27.398 10.6338 26.0996 11.9322 26.0996 13.5338C26.0996 15.1354 27.398 16.4338 28.9996 16.4338ZM28.9996 12.5671C29.5335 12.5671 29.9663 12.9999 29.9663 13.5338C29.9663 14.0677 29.5335 14.5005 28.9996 14.5005C28.4657 14.5005 28.0329 14.0677 28.0329 13.5338C28.0329 12.9999 28.4657 12.5671 28.9996 12.5671Z" fill="#D7B65D"/>
<path d="M21.2672 14.5002C22.8688 14.5002 24.1672 13.2018 24.1672 11.6002C24.1672 9.99857 22.8688 8.7002 21.2672 8.7002C19.6656 8.7002 18.3672 9.99857 18.3672 11.6002C18.3672 13.2018 19.6656 14.5002 21.2672 14.5002ZM21.2672 10.6335C21.8011 10.6335 22.2339 11.0663 22.2339 11.6002C22.2339 12.1341 21.8011 12.5669 21.2672 12.5669C20.7333 12.5669 20.3005 12.1341 20.3005 11.6002C20.3005 11.0663 20.7333 10.6335 21.2672 10.6335Z" fill="#D7B65D"/>
<path d="M23.2003 26.2077C23.1863 27.2009 23.9791 28.0179 24.9722 28.0338H33.0284C34.0216 28.0179 34.8143 27.2009 34.8003 26.2077C34.8003 26.0521 34.1449 26.1004 40.7647 26.1004C41.757 26.083 42.5482 25.2659 42.5337 24.2734V22.5528C42.5337 16.513 35.0217 14.1283 31.8887 19.1878C30.1186 18.0934 27.882 18.0934 26.1119 19.1878C22.978 14.1254 15.467 16.514 15.467 22.5528V24.2734C15.4525 25.2659 16.2436 26.083 17.236 26.1004C23.8635 26.1004 23.2003 26.0521 23.2003 26.2077ZM40.6003 22.5528V24.1671H34.7849C34.7245 22.8245 34.2345 21.5369 33.3871 20.4938C35.3281 16.747 40.6003 18.282 40.6003 22.5528ZM32.867 24.4861V26.1004H25.1337V24.489C25.0508 22.2668 26.7786 20.3952 29.0003 20.3004C31.222 20.3952 32.9499 22.2668 32.867 24.489V24.4861ZM17.4003 22.5528C17.4003 18.34 22.6522 16.7064 24.6136 20.4967C23.7668 21.539 23.2768 22.8256 23.2158 24.1671H17.4003V22.5528Z" fill="#D7B65D"/>
<path d="M36.734 14.5002C38.3356 14.5002 39.634 13.2018 39.634 11.6002C39.634 9.99857 38.3356 8.7002 36.734 8.7002C35.1324 8.7002 33.834 9.99857 33.834 11.6002C33.834 13.2018 35.1324 14.5002 36.734 14.5002ZM36.734 10.6335C37.2679 10.6335 37.7007 11.0663 37.7007 11.6002C37.7007 12.1341 37.2679 12.5669 36.734 12.5669C36.2001 12.5669 35.7673 12.1341 35.7673 11.6002C35.7673 11.0663 36.2001 10.6335 36.734 10.6335Z" fill="#D7B65D"/>
</svg>
