<svg width="24" height="18" viewBox="0 0 24 18" fill="none" xmlns="http://www.w3.org/2000/svg">
<path d="M21.3047 10.3711C22.0155 10.3711 22.5938 9.7928 22.5938 9.08203V3.45703C22.5938 2.74627 22.0155 2.16797 21.3047 2.16797H13.6406C12.9299 2.16797 12.3516 2.74627 12.3516 3.45703V9.08203C12.3516 9.7928 12.9299 10.3711 13.6406 10.3711H21.3047ZM21.8906 5.91797H19.6302C19.4908 5.57484 19.1543 5.33203 18.7617 5.33203H16.1836C15.791 5.33203 15.4545 5.57484 15.3151 5.91797H13.0547V4.74609H21.8906V5.91797ZM18.9961 6.26953C18.9961 6.39877 18.891 6.50391 18.7617 6.50391H16.1836C16.0544 6.50391 15.9492 6.39877 15.9492 6.26953C15.9492 6.1403 16.0544 6.03516 16.1836 6.03516H18.7617C18.891 6.03516 18.9961 6.1403 18.9961 6.26953ZM13.0547 6.62109H15.3151C15.4545 6.96422 15.791 7.20703 16.1836 7.20703H18.7617C19.1543 7.20703 19.4908 6.96422 19.6302 6.62109H21.8906V7.79297H13.0547V6.62109ZM13.6406 2.87109H21.3047C21.6278 2.87109 21.8906 3.13392 21.8906 3.45703V4.04297H13.0547V3.45703C13.0547 3.13392 13.3175 2.87109 13.6406 2.87109ZM13.0547 9.08203V8.49609H21.8906V9.08203C21.8906 9.40514 21.6278 9.66797 21.3047 9.66797H13.6406C13.3175 9.66797 13.0547 9.40514 13.0547 9.08203Z" fill="#D7B65D"/>
<path d="M1.40625 3.45703V9.08203C1.40625 9.7928 1.98455 10.3711 2.69531 10.3711H10.3594C11.0701 10.3711 11.6484 9.7928 11.6484 9.08203V3.45703C11.6484 2.74627 11.0701 2.16797 10.3594 2.16797H2.69531C1.98455 2.16797 1.40625 2.74627 1.40625 3.45703ZM10.9453 5.91797H8.68491C8.5455 5.57484 8.20903 5.33203 7.81641 5.33203H5.23828C4.8457 5.33203 4.50923 5.57484 4.36978 5.91797H2.10938V4.74609H10.9453V5.91797ZM8.05078 6.26953C8.05078 6.39877 7.94564 6.50391 7.81641 6.50391H5.23828C5.10905 6.50391 5.00391 6.39877 5.00391 6.26953C5.00391 6.1403 5.10905 6.03516 5.23828 6.03516H7.81641C7.94564 6.03516 8.05078 6.1403 8.05078 6.26953ZM10.3594 9.66797H2.69531C2.3722 9.66797 2.10938 9.40514 2.10938 9.08203V8.49609H6.19922C6.39342 8.49609 6.55078 8.33873 6.55078 8.14453C6.55078 7.95033 6.39342 7.79297 6.19922 7.79297H2.10938V6.62109H4.36978C4.50919 6.96422 4.84566 7.20703 5.23828 7.20703H7.81641C8.20898 7.20703 8.54545 6.96422 8.68491 6.62109H10.9453V7.79297H7.83984C7.64564 7.79297 7.48828 7.95033 7.48828 8.14453C7.48828 8.33873 7.64564 8.49609 7.83984 8.49609H10.9453V9.08203C10.9453 9.40514 10.6825 9.66797 10.3594 9.66797ZM10.9453 3.45703V4.04297H2.10938V3.45703C2.10938 3.13392 2.3722 2.87109 2.69531 2.87109H10.3594C10.6825 2.87109 10.9453 3.13392 10.9453 3.45703Z" fill="#D7B65D"/>
<path d="M23.6484 7.58203C23.4542 7.58203 23.2969 7.73939 23.2969 7.93359V10.5117C23.2969 10.8348 23.034 11.0977 22.7109 11.0977H1.28906C0.965953 11.0977 0.703125 10.8348 0.703125 10.5117V2.07422C0.703125 1.75111 0.965953 1.48828 1.28906 1.48828H4.92984C5.12405 1.48828 5.28141 1.33092 5.28141 1.13672C5.28141 0.942516 5.12405 0.785156 4.92984 0.785156H1.28906C0.57825 0.785156 0 1.36341 0 2.07422V10.5117C0 11.2225 0.57825 11.8008 1.28906 11.8008H22.7109C23.4217 11.8008 24 11.2225 24 10.5117V7.93359C24 7.73939 23.8426 7.58203 23.6484 7.58203Z" fill="#D7B65D"/>
<path d="M22.7098 0.785156H6.56934C6.37513 0.785156 6.21777 0.942516 6.21777 1.13672C6.21777 1.33092 6.37513 1.48828 6.56934 1.48828H22.7098C23.0329 1.48828 23.2957 1.75111 23.2957 2.07422V6.29297C23.2957 6.48717 23.4531 6.64453 23.6473 6.64453C23.8415 6.64453 23.9989 6.48717 23.9989 6.29297V2.07422C23.9989 1.36345 23.4206 0.785156 22.7098 0.785156Z" fill="#D7B65D"/>
<path d="M18.1523 12.8555C18.1523 12.6613 17.995 12.5039 17.8008 12.5039C17.6066 12.5039 17.4492 12.6613 17.4492 12.8555C17.4492 13.118 17.3514 13.2344 17.2035 13.4105C17.0302 13.6167 16.793 13.8992 16.793 14.4178C16.793 14.9365 17.0302 15.219 17.2035 15.4252C17.3514 15.6014 17.4492 15.7178 17.4492 15.9804C17.4492 16.243 17.3514 16.3594 17.2035 16.5356C17.0302 16.7418 16.793 17.0243 16.793 17.543C16.793 17.7372 16.9503 17.8945 17.1445 17.8945C17.3387 17.8945 17.4961 17.7372 17.4961 17.543C17.4961 17.2804 17.5939 17.164 17.7419 16.9878C17.9151 16.7816 18.1523 16.4991 18.1523 15.9804C18.1523 15.4617 17.9151 15.1793 17.7419 14.973C17.5939 14.7968 17.4961 14.6805 17.4961 14.4178C17.4961 14.1553 17.5939 14.0389 17.7418 13.8628C17.9151 13.6566 18.1523 13.3741 18.1523 12.8555Z" fill="#D7B65D"/>
<path d="M15.457 15.6279C15.2628 15.6279 15.1055 15.7853 15.1055 15.9795C15.1055 16.2421 15.0077 16.3585 14.8597 16.5347C14.6865 16.7409 14.4492 17.0234 14.4492 17.5421C14.4492 17.7363 14.6066 17.8936 14.8008 17.8936C14.995 17.8936 15.1523 17.7363 15.1523 17.5421C15.1523 17.2795 15.2501 17.1631 15.3981 16.9869C15.5713 16.7807 15.8086 16.4982 15.8086 15.9795C15.8086 15.7853 15.6512 15.6279 15.457 15.6279Z" fill="#D7B65D"/>
<path d="M15.4575 12.5039C15.2633 12.5039 15.1059 12.6613 15.1059 12.8555C15.1059 13.118 15.0082 13.2344 14.8602 13.4105C14.6948 13.5914 14.4251 13.9741 14.451 14.4821C14.4583 14.6715 14.6141 14.82 14.802 14.82C14.9612 14.82 15.1535 14.6887 15.1535 14.4548C15.1438 14.2453 15.2251 14.047 15.3986 13.8628C15.5718 13.6566 15.8091 13.3741 15.8091 12.8555C15.8091 12.6613 15.6517 12.5039 15.4575 12.5039Z" fill="#D7B65D"/>
<path d="M20.4961 12.8555C20.4961 12.6613 20.3387 12.5039 20.1445 12.5039C19.9503 12.5039 19.793 12.6613 19.793 12.8555C19.793 13.118 19.6952 13.2344 19.5472 13.4105C19.374 13.6167 19.1367 13.8992 19.1367 14.4178C19.1367 14.9365 19.374 15.219 19.5472 15.4252C19.6952 15.6014 19.793 15.7178 19.793 15.9804C19.793 16.243 19.6952 16.3594 19.5472 16.5356C19.374 16.7418 19.1367 17.0243 19.1367 17.543C19.1367 17.7372 19.2941 17.8945 19.4883 17.8945C19.6825 17.8945 19.8398 17.7372 19.8398 17.543C19.8398 17.2804 19.9376 17.164 20.0856 16.9878C20.2588 16.7816 20.4961 16.4991 20.4961 15.9804C20.4961 15.4617 20.2588 15.1793 20.0856 14.973C19.9376 14.7968 19.8398 14.6805 19.8398 14.4178C19.8398 14.1553 19.9376 14.0389 20.0856 13.8628C20.2588 13.6566 20.4961 13.3741 20.4961 12.8555Z" fill="#D7B65D"/>
<path d="M7.20703 12.8555C7.20703 12.6613 7.04967 12.5039 6.85547 12.5039C6.66127 12.5039 6.50391 12.6613 6.50391 12.8555C6.50391 13.118 6.40612 13.2344 6.25819 13.4105C6.08494 13.6167 5.84766 13.8992 5.84766 14.4178C5.84766 14.9365 6.08494 15.219 6.25814 15.4252C6.40613 15.6014 6.50391 15.7178 6.50391 15.9804C6.50391 16.243 6.40613 16.3594 6.25814 16.5356C6.08494 16.7418 5.84766 17.0243 5.84766 17.543C5.84766 17.7372 6.00502 17.8945 6.19922 17.8945C6.39342 17.8945 6.55078 17.7372 6.55078 17.543C6.55078 17.2804 6.64856 17.164 6.79655 16.9878C6.96975 16.7816 7.20703 16.4991 7.20703 15.9804C7.20703 15.4617 6.96975 15.1793 6.79655 14.973C6.64856 14.7968 6.55078 14.6805 6.55078 14.4178C6.55078 14.1553 6.64856 14.0389 6.7965 13.8628C6.96975 13.6566 7.20703 13.3741 7.20703 12.8555Z" fill="#D7B65D"/>
<path d="M4.86328 12.8555C4.86328 12.6613 4.70592 12.5039 4.51172 12.5039C4.31752 12.5039 4.16016 12.6613 4.16016 12.8555C4.16016 13.118 4.06238 13.2344 3.91444 13.4105C3.74119 13.6167 3.50391 13.8992 3.50391 14.4178C3.50391 14.9365 3.74119 15.219 3.91439 15.4252C4.06238 15.6014 4.16016 15.7178 4.16016 15.9804C4.16016 16.243 4.06238 16.3594 3.91439 16.5356C3.74119 16.7418 3.50391 17.0243 3.50391 17.543C3.50391 17.7372 3.66127 17.8945 3.85547 17.8945C4.04967 17.8945 4.20703 17.7372 4.20703 17.543C4.20703 17.2804 4.30481 17.164 4.4528 16.9878C4.626 16.7816 4.86328 16.4991 4.86328 15.9804C4.86328 15.4617 4.626 15.1793 4.4528 14.973C4.30481 14.7968 4.20703 14.6805 4.20703 14.4178C4.20703 14.1553 4.30481 14.0389 4.45275 13.8628C4.626 13.6566 4.86328 13.3741 4.86328 12.8555Z" fill="#D7B65D"/>
<path d="M9.55078 12.8555C9.55078 12.6613 9.39342 12.5039 9.19922 12.5039C9.00502 12.5039 8.84766 12.6613 8.84766 12.8555C8.84766 13.118 8.74987 13.2344 8.60194 13.4105C8.42869 13.6167 8.19141 13.8992 8.19141 14.4178C8.19141 14.9365 8.42869 15.219 8.60189 15.4252C8.74988 15.6014 8.84766 15.7178 8.84766 15.9804C8.84766 16.243 8.74988 16.3594 8.60189 16.5356C8.42869 16.7418 8.19141 17.0243 8.19141 17.543C8.19141 17.7372 8.34877 17.8945 8.54297 17.8945C8.73717 17.8945 8.89453 17.7372 8.89453 17.543C8.89453 17.2804 8.99231 17.164 9.1403 16.9878C9.3135 16.7816 9.55078 16.4991 9.55078 15.9804C9.55078 15.4617 9.3135 15.1793 9.1403 14.973C8.99231 14.7968 8.89453 14.6805 8.89453 14.4178C8.89453 14.1553 8.99231 14.0389 9.14025 13.8628C9.3135 13.6566 9.55078 13.3741 9.55078 12.8555Z" fill="#D7B65D"/>
</svg>
