<svg width="24" height="25" viewBox="0 0 24 25" fill="none" xmlns="http://www.w3.org/2000/svg">
<path d="M10.0681 12.3398L15.2675 8.43984C15.3608 8.37008 15.4365 8.27952 15.4887 8.17537C15.5409 8.07121 15.568 7.95633 15.568 7.83984C15.568 7.72336 15.5409 7.60848 15.4887 7.50432C15.4365 7.40017 15.3608 7.30961 15.2675 7.23984L9.26753 2.73984C9.15611 2.65627 9.02361 2.60538 8.88489 2.59287C8.74617 2.58037 8.6067 2.60673 8.48212 2.66902C8.35754 2.73131 8.25277 2.82706 8.17955 2.94555C8.10632 3.06403 8.06753 3.20056 8.06753 3.33984V10.8398L4.76753 8.36484C4.68895 8.30321 4.59884 8.25789 4.5025 8.23155C4.40617 8.20521 4.30554 8.19837 4.20652 8.21144C4.10751 8.22452 4.0121 8.25723 3.9259 8.30767C3.8397 8.35811 3.76444 8.42526 3.70454 8.50518C3.64464 8.5851 3.60131 8.67618 3.57709 8.77307C3.55286 8.86996 3.54823 8.97072 3.56347 9.06942C3.57871 9.16812 3.61351 9.26279 3.66582 9.34787C3.71814 9.43294 3.78692 9.50671 3.86813 9.56484L7.56773 12.3398L3.86813 15.1148C3.78692 15.173 3.71814 15.2467 3.66582 15.3318C3.61351 15.4169 3.57871 15.5116 3.56347 15.6103C3.54823 15.709 3.55286 15.8097 3.57709 15.9066C3.60131 16.0035 3.64464 16.0946 3.70454 16.1745C3.76444 16.2544 3.8397 16.3216 3.9259 16.372C4.0121 16.4225 4.10751 16.4552 4.20652 16.4682C4.30554 16.4813 4.40617 16.4745 4.5025 16.4481C4.59884 16.4218 4.68895 16.3765 4.76753 16.3148L8.06753 13.8398V21.3398C8.06753 21.4791 8.10632 21.6157 8.17955 21.7341C8.25277 21.8526 8.35754 21.9484 8.48212 22.0107C8.6067 22.073 8.74617 22.0993 8.88489 22.0868C9.02361 22.0743 9.15611 22.0234 9.26753 21.9398L15.2675 17.4398C15.3608 17.3701 15.4365 17.2795 15.4887 17.1754C15.5409 17.0712 15.568 16.9563 15.568 16.8398C15.568 16.7234 15.5409 16.6085 15.4887 16.5043C15.4365 16.4002 15.3608 16.3096 15.2675 16.2398L10.0681 12.3398ZM9.56783 4.83984L13.5676 7.83984L9.56783 10.8398V4.83984ZM9.56783 19.8398V13.8398L13.5676 16.8398L9.56783 19.8398Z" fill="#D7B65D"/>
<path d="M16.5385 10.3101C16.398 10.1693 16.2072 10.0901 16.0083 10.0898C15.8093 10.0896 15.6184 10.1685 15.4776 10.309C15.3368 10.4495 15.2575 10.6402 15.2573 10.8392C15.2571 11.0382 15.336 11.229 15.4765 11.3699C15.7337 11.6271 15.8783 11.976 15.8784 12.3399C15.8786 12.7037 15.7342 13.0527 15.4772 13.3101C15.404 13.379 15.3455 13.4618 15.305 13.5537C15.2644 13.6455 15.2428 13.7446 15.2413 13.845C15.2398 13.9455 15.2585 14.0452 15.2962 14.1382C15.334 14.2313 15.39 14.3158 15.4611 14.3868C15.5321 14.4578 15.6167 14.5138 15.7098 14.5514C15.8029 14.5891 15.9026 14.6077 16.003 14.6062C16.1034 14.6046 16.2025 14.5828 16.2943 14.5423C16.3862 14.5017 16.469 14.443 16.5377 14.3699C17.076 13.8315 17.3784 13.1014 17.3786 12.3402C17.3787 11.5789 17.0765 10.8487 16.5385 10.3101Z" fill="#D7B65D"/>
<path d="M18.3474 7.30953C18.2784 7.23715 18.1956 7.17931 18.1039 7.13941C18.0122 7.09951 17.9134 7.07836 17.8134 7.0772C17.7134 7.07604 17.6141 7.0949 17.5215 7.13266C17.4289 7.17042 17.3448 7.22632 17.2741 7.29708C17.2034 7.36784 17.1476 7.45202 17.1099 7.54467C17.0722 7.63733 17.0535 7.73658 17.0547 7.83659C17.056 7.9366 17.0773 8.03534 17.1172 8.12702C17.1572 8.21869 17.2152 8.30144 17.2876 8.3704C17.8089 8.89157 18.2224 9.51033 18.5046 10.1913C18.7867 10.8723 18.9319 11.6023 18.9319 12.3394C18.9319 13.0765 18.7867 13.8065 18.5046 14.4875C18.2224 15.1685 17.8089 15.7872 17.2876 16.3084C17.2162 16.3776 17.1593 16.4604 17.1202 16.5518C17.0811 16.6433 17.0606 16.7416 17.0598 16.841C17.059 16.9405 17.0781 17.0391 17.1158 17.1311C17.1535 17.2231 17.2091 17.3067 17.2794 17.3771C17.3498 17.4474 17.4334 17.503 17.5254 17.5407C17.6174 17.5785 17.716 17.5975 17.8155 17.5967C17.9149 17.596 18.0132 17.5755 18.1047 17.5364C18.1961 17.4973 18.2789 17.4404 18.3481 17.369C19.0088 16.7085 19.5329 15.9244 19.8904 15.0614C20.248 14.1983 20.432 13.2733 20.4319 12.3391C20.4318 11.4049 20.2477 10.4799 19.8901 9.61694C19.5324 8.75394 19.0082 7.96987 18.3474 7.30953Z" fill="#D7B65D"/>
</svg>
