<svg width="21" height="20" viewBox="0 0 21 20" fill="none" xmlns="http://www.w3.org/2000/svg">
<path d="M17.38 1.40012C17.3 1.30678 17.2 1.25678 17.08 1.25012C16.96 1.24345 16.8533 1.27678 16.76 1.35012C16.6667 1.42345 16.6133 1.52012 16.6 1.64012C16.5867 1.76012 16.62 1.87345 16.7 1.98012L18.1 3.64012C17.62 3.56012 17.1667 3.63678 16.74 3.87012C16.3133 4.10345 16.01 4.44678 15.83 4.90012C15.65 5.35345 15.63 5.81345 15.77 6.28012C15.91 6.74678 16.18 7.11678 16.58 7.39012C16.98 7.66345 17.4233 7.78345 17.91 7.75012C18.3967 7.71678 18.8133 7.53345 19.16 7.20012V11.6001C19.16 11.8135 19.1067 12.0135 19 12.2001C18.8933 12.3868 18.75 12.5301 18.57 12.6301C18.39 12.7301 18.1933 12.7801 17.98 12.7801C17.7667 12.7801 17.5667 12.7268 17.38 12.6201C17.1933 12.5135 17.0467 12.3701 16.94 12.1901C16.8333 12.0101 16.78 11.8135 16.78 11.6001V10.2601C16.78 9.75345 16.6033 9.32345 16.25 8.97012C15.8967 8.61678 15.4667 8.44012 14.96 8.44012H13.54V2.24012C13.54 1.72012 13.3533 1.27678 12.98 0.910118C12.6067 0.543451 12.16 0.360117 11.64 0.360117H1.9C1.36667 0.360117 0.916667 0.543451 0.55 0.910118C0.183333 1.27678 0 1.72012 0 2.24012V19.1801C0 19.3001 0.0433333 19.4035 0.13 19.4901C0.216667 19.5768 0.32 19.6201 0.44 19.6201H13.1C13.22 19.6201 13.3233 19.5768 13.41 19.4901C13.4967 19.4035 13.54 19.3001 13.54 19.1801V9.32012H14.96C15.2267 9.32012 15.45 9.41012 15.63 9.59012C15.81 9.77012 15.9 9.99345 15.9 10.2601V11.6001C15.9 11.9735 15.9933 12.3201 16.18 12.6401C16.3667 12.9601 16.62 13.2101 16.94 13.3901C17.26 13.5701 17.6033 13.6601 17.97 13.6601C18.3367 13.6601 18.6833 13.5701 19.01 13.3901C19.3367 13.2101 19.59 12.9601 19.77 12.6401C19.95 12.3201 20.04 11.9735 20.04 11.6001V5.52012C20.04 5.20012 19.9833 4.89012 19.87 4.59012C19.7567 4.29012 19.5933 4.02678 19.38 3.80012L17.38 1.40012ZM12.66 18.7401H0.88V2.24012C0.88 1.97345 0.98 1.74012 1.18 1.54012C1.38 1.34012 1.62 1.24012 1.9 1.24012H11.64C11.92 1.24012 12.16 1.34012 12.36 1.54012C12.56 1.74012 12.66 1.97345 12.66 2.24012V18.7401ZM17.76 6.86012C17.4267 6.86012 17.1433 6.74678 16.91 6.52012C16.6767 6.29345 16.56 6.01345 16.56 5.68012C16.56 5.34678 16.6767 5.06678 16.91 4.84012C17.1433 4.61345 17.4233 4.50012 17.75 4.50012C18.0767 4.50012 18.3567 4.61345 18.59 4.84012C18.8233 5.06678 18.94 5.34678 18.94 5.68012C18.94 6.01345 18.8233 6.29345 18.59 6.52012C18.3567 6.74678 18.08 6.86012 17.76 6.86012ZM10.28 2.62012H3.26C2.88667 2.62012 2.57 2.75012 2.31 3.01012C2.05 3.27012 1.92 3.58012 1.92 3.94012V9.86012C1.92 9.98012 1.96333 10.0835 2.05 10.1701C2.13667 10.2568 2.24 10.3001 2.36 10.3001H11.16C11.2933 10.3001 11.4 10.2568 11.48 10.1701C11.56 10.0835 11.6 9.98012 11.6 9.86012V3.94012C11.6 3.58012 11.4733 3.27012 11.22 3.01012C10.9667 2.75012 10.6533 2.62012 10.28 2.62012ZM10.72 9.42012H2.82V3.94012C2.82 3.82012 2.86 3.71678 2.94 3.63012C3.02 3.54345 3.12667 3.50012 3.26 3.50012H10.28C10.4 3.50012 10.5033 3.54345 10.59 3.63012C10.6767 3.71678 10.72 3.82012 10.72 3.94012V9.42012ZM7.02 4.68012C6.92667 4.60012 6.82 4.56012 6.7 4.56012C6.58 4.56012 6.48 4.60012 6.4 4.68012L5.58 5.50012C5.35333 5.72678 5.20667 6.00012 5.14 6.32012C5.07333 6.64012 5.10333 6.95345 5.23 7.26012C5.35667 7.56678 5.55333 7.81012 5.82 7.99012C6.08667 8.17012 6.38667 8.26012 6.72 8.26012C6.93333 8.26012 7.14 8.21678 7.34 8.13012C7.54 8.04345 7.70667 7.92678 7.84 7.78012C8.16 7.47345 8.31667 7.09678 8.31 6.65012C8.30333 6.20345 8.14667 5.82012 7.84 5.50012L7.02 4.68012ZM7.22 7.16012C7.22 7.16012 7.22 7.16678 7.22 7.18012C7.06 7.31345 6.88667 7.38012 6.7 7.38012C6.51333 7.38012 6.35 7.30678 6.21 7.16012C6.07 7.01345 6 6.84012 6 6.64012C6 6.44012 6.06667 6.27345 6.2 6.14012L6.7 5.62012L7.22 6.12012C7.36667 6.26678 7.44 6.44012 7.44 6.64012C7.44 6.84012 7.36667 7.01345 7.22 7.16012Z" fill="#D7B65D"/>
</svg>
