<svg width="58" height="58" viewBox="0 0 58 58" fill="none" xmlns="http://www.w3.org/2000/svg">
<g clip-path="url(#clip0_21_2869)">
<path d="M55.3551 36.213L57.0145 34.554C58.0588 33.5092 58.0588 31.8096 57.0145 30.7648C56.5083 30.259 55.8356 29.9803 55.1197 29.9803C54.5825 29.9803 54.0692 30.1374 53.6329 30.4298L53.2833 29.2563L55.0794 27.4598C56.1242 26.415 56.1242 24.7153 55.0794 23.671C54.1178 22.709 52.6018 22.6351 51.5517 23.4445L49.4233 16.2989C50.2733 15.4802 51.0876 14.6837 51.8549 13.9164C54.0661 11.7048 55.864 9.36438 56.9176 7.32531C58.6978 3.87908 57.9526 2.03693 57.014 1.09837C56.0759 0.159819 54.2338 -0.584918 50.7871 1.19528C48.7485 2.24844 46.4076 4.04634 44.1964 6.25799C43.4291 7.02529 42.6322 7.83906 41.814 8.68911L34.668 6.56066C35.4773 5.51104 35.4034 3.99501 34.4418 3.03301C33.3971 1.98869 31.6974 1.98825 30.6531 3.03301L28.8565 4.82958L27.6826 4.48C27.9751 4.04325 28.1321 3.52994 28.1321 2.99274C28.1321 2.27721 27.8534 1.60416 27.3476 1.09837C26.3033 0.0536172 24.6032 0.0536172 23.5589 1.09837L21.8999 2.75733L13.4441 0.238585C13.1427 0.149199 12.817 0.231505 12.5953 0.453642L10.4186 2.63033C10.0531 2.99539 10.1014 3.61977 10.5182 3.92466L31.8532 19.5411C27.0427 24.9649 22.4088 30.3953 19.1373 34.2752L12.8617 31.8614C12.5462 31.7401 12.1891 31.8158 11.9502 32.0547L9.37035 34.6345C9.0367 34.9686 9.0367 35.5098 9.37035 35.8435L22.2689 48.7421C22.5982 49.0717 23.1486 49.0717 23.4783 48.7421L26.0577 46.1627C26.2966 45.9237 26.3727 45.5662 26.2511 45.2507L23.8376 38.9755C27.7175 35.7041 33.1475 31.0702 38.5717 26.2592L40.2665 28.5753C40.5674 28.9864 41.1777 29.0395 41.5467 28.689C41.8542 28.397 41.8967 27.9071 41.6467 27.5655L39.855 25.1176C42.6915 22.586 45.4925 20.0319 48.0338 17.6251L56.0896 44.6688L54.9785 45.7795L43.9066 30.6529C43.6278 30.2719 43.0928 30.1891 42.7118 30.4679C42.3304 30.7471 42.2476 31.2821 42.5268 31.6631L54.1882 47.5946C54.4931 48.0115 55.1175 48.0597 55.4825 47.6942L57.6592 45.5175C57.8813 45.2958 57.9637 44.9697 57.8743 44.6688L55.3551 36.213ZM31.8625 4.24237C32.2359 3.8689 32.8594 3.8689 33.2329 4.24237C33.6108 4.62027 33.6108 5.23491 33.2329 5.61281L32.832 6.01372L30.7199 5.38448L31.8625 4.24237ZM24.7682 2.30774C25.1457 1.92984 25.7608 1.92984 26.1387 2.30774C26.5166 2.68564 26.5166 3.30028 26.1387 3.67818L25.8749 3.94147L23.7633 3.31267L24.7682 2.30774ZM12.3329 3.1339L13.4441 2.02321L40.4878 10.0786C38.081 12.6203 35.5269 15.4214 32.9948 18.2578L12.3329 3.1339ZM12.7666 33.657L17.9727 35.6594C16.6668 37.2143 15.6654 38.4175 15.0747 39.1295L11.1842 35.239L12.7666 33.657ZM16.2894 40.3442C19.2701 36.7479 35.0255 17.8472 45.4058 7.46691C47.4652 5.40705 49.7131 3.67508 51.5721 2.71485C52.9678 1.99356 54.8351 1.33777 55.8051 2.30774C56.7751 3.27771 56.1188 5.14509 55.398 6.54075C54.4378 8.39971 52.7054 10.6472 50.6455 12.7071C40.2661 23.0865 21.3649 38.8423 17.7687 41.8235L16.2894 40.3442ZM24.4558 45.3463L22.8739 46.9282L18.9833 43.0377C19.6949 42.4474 20.8985 41.446 22.4535 40.1402L24.4558 45.3463ZM54.4347 31.9742C54.8126 31.5963 55.4272 31.5963 55.8051 31.9742C56.183 32.3521 56.183 32.9667 55.8051 33.3446L54.8002 34.3496L54.1709 32.2379L54.4347 31.9742ZM52.5 24.8799C52.8775 24.502 53.4926 24.5025 53.8705 24.8799C54.2439 25.2534 54.2439 25.8769 53.8705 26.2504L52.7279 27.3929L52.0987 25.2809L52.5 24.8799Z" fill="#D7B65D"/>
<path d="M51.3252 49.3577L44.0287 56.6541C43.7177 56.9657 43.6969 57.4798 43.9832 57.8144C44.3031 58.1879 44.8903 58.2113 45.2381 57.8635L52.5346 50.567C52.8687 50.2329 52.8687 49.6918 52.5346 49.3577C52.2009 49.024 51.6593 49.024 51.3252 49.3577Z" fill="#D7B65D"/>
<path d="M48.886 46.9185C49.2201 46.5848 49.2201 46.0432 48.886 45.7096C48.5524 45.3755 48.0107 45.3755 47.6771 45.7096L43.1166 50.2696C42.8056 50.5811 42.7848 51.0953 43.0711 51.4298C43.391 51.8033 43.9782 51.8267 44.326 51.4789L48.886 46.9185Z" fill="#D7B65D"/>
<path d="M46.15 42.3584C46.4841 42.0243 46.4841 41.4827 46.15 41.149C45.8159 40.8149 45.2747 40.8149 44.9406 41.149L41.7484 44.3412C41.4373 44.6523 41.4165 45.167 41.7033 45.5015C42.0228 45.875 42.61 45.8984 42.9578 45.5506L46.15 42.3584Z" fill="#D7B65D"/>
<path d="M8.75641 6.03442C8.42232 5.70077 7.88069 5.70077 7.54704 6.03442L0.250569 13.3313C-0.0835229 13.665 -0.0835229 14.2066 0.250569 14.5403C0.579793 14.8695 1.13027 14.8695 1.45994 14.5403L8.75641 7.24378C9.09006 6.90969 9.09006 6.36851 8.75641 6.03442Z" fill="#D7B65D"/>
<path d="M12.4038 9.68221C12.0697 9.34812 11.5285 9.34812 11.1948 9.68221L6.63437 14.2427C6.32285 14.5538 6.30249 15.0679 6.5888 15.4025C6.90873 15.776 7.49549 15.7994 7.8433 15.4516L12.4038 10.8916C12.7379 10.5575 12.7379 10.0159 12.4038 9.68221Z" fill="#D7B65D"/>
<path d="M12.5627 16.8198C12.8924 17.149 13.4424 17.149 13.7721 16.8198L16.9643 13.6276C17.298 13.2935 17.298 12.7523 16.9643 12.4182C16.6302 12.0846 16.0891 12.0846 15.755 12.4182L12.5627 15.6104C12.2291 15.9445 12.2291 16.4857 12.5627 16.8198Z" fill="#D7B65D"/>
</g>
<defs>
<clipPath id="clip0_21_2869">
<rect width="58" height="58" fill="white"/>
</clipPath>
</defs>
</svg>
