<svg width="40" height="40" viewBox="0 0 40 40" fill="none" xmlns="http://www.w3.org/2000/svg">
<g clip-path="url(#clip0_22_3151)">
<path d="M22.7695 0C22.338 0 21.9883 0.349731 21.9883 0.781249C21.9883 1.21277 22.338 1.5625 22.7695 1.5625C31.4094 1.5625 38.4381 8.5916 38.4381 17.2311C38.4381 17.6626 38.7882 18.0124 39.2194 18.0124C39.6509 18.0124 40.0006 17.6626 40.0006 17.2311C40.0006 7.73009 32.2709 0 22.7695 0Z" fill="#D7B65D"/>
<path d="M34.5197 18.0122C34.9512 18.0122 35.3009 17.6622 35.3009 17.2309C35.3009 10.3209 29.6793 4.69922 22.7695 4.69922C22.338 4.69922 21.9883 5.04925 21.9883 5.48047C21.9883 5.91199 22.338 6.26172 22.7695 6.26172C28.8178 6.26172 33.7384 11.1824 33.7384 17.2309C33.7384 17.6622 34.0882 18.0122 34.5197 18.0122Z" fill="#D7B65D"/>
<path d="M29.0378 17.2312C29.0378 17.6624 29.3876 18.0124 29.8191 18.0124C30.2506 18.0124 30.6003 17.6624 30.6003 17.2312C30.6003 12.9133 27.0875 9.40039 22.7695 9.40039C22.338 9.40039 21.9883 9.75012 21.9883 10.1813C21.9883 10.6129 22.338 10.9626 22.7695 10.9626C26.2259 10.9626 29.0378 13.7745 29.0378 17.2312Z" fill="#D7B65D"/>
<path d="M21.9883 14.8818C21.9883 15.313 22.338 15.6628 22.7695 15.6628C23.6344 15.6628 24.3381 16.3665 24.3381 17.2317C24.3381 17.6629 24.6879 18.0129 25.1194 18.0129C25.5506 18.0129 25.9006 17.6629 25.9006 17.2317C25.9006 15.505 24.4959 14.1006 22.7695 14.1006C22.338 14.1006 21.9883 14.4503 21.9883 14.8818Z" fill="#D7B65D"/>
<path d="M14.6436 25.3652C14.6436 25.7968 14.2938 26.1465 13.8623 26.1465C13.4308 26.1465 13.0811 25.7968 13.0811 25.3652C13.0811 24.934 13.4308 24.584 13.8623 24.584C14.2938 24.584 14.6436 24.934 14.6436 25.3652Z" fill="#D7B65D"/>
<path d="M21.4087 39.0509C24.9662 40.7944 29.246 40.069 32.0591 37.2559L33.6744 35.6406C34.5514 34.7644 34.5517 33.345 33.6747 32.4683L27.4332 26.2274C26.5577 25.3507 25.138 25.3495 24.2615 26.2271L21.6096 28.8794C21.0901 29.3988 20.2884 29.5047 19.7037 29.1315C18.7504 28.5221 17.8229 27.8501 16.9474 27.1341C16.6132 26.861 16.1213 26.9104 15.8481 27.2443C15.575 27.5785 15.6245 28.0707 15.9583 28.3435C16.8809 29.0979 17.8577 29.8059 18.8627 30.448C20.0605 31.2131 21.6804 31.0181 22.7143 29.9842L25.3669 27.3316C25.6321 27.0661 26.0618 27.0655 26.3282 27.3319L32.5699 33.573C32.8357 33.8391 32.8363 34.2694 32.5699 34.5352L30.9543 36.1511C28.6109 38.4946 25.0513 39.0961 22.0963 37.648C11.2708 32.3395 5.38094 23.9221 2.34627 17.7954C0.894556 14.8655 1.49728 11.3193 3.84621 8.971L5.42641 7.3911C5.6913 7.1256 6.12129 7.12469 6.38741 7.39141L12.6298 13.6335C12.8941 13.8974 12.8968 14.3277 12.6292 14.5948L9.97718 17.247C8.94325 18.281 8.74824 19.9009 9.51332 21.099C9.96406 21.8042 10.4499 22.5 10.9577 23.1668C11.2189 23.5102 11.7091 23.5764 12.0524 23.3152C12.3957 23.0539 12.4622 22.5638 12.2007 22.2202C11.7191 21.5876 11.2577 20.9272 10.8298 20.2579C10.4566 19.6729 10.5625 18.8712 11.0819 18.3518L13.7336 15.7001C14.6104 14.8246 14.6113 13.4046 13.7342 12.5284L7.49245 6.28698C6.6172 5.41021 5.19722 5.40899 4.32106 6.28667L2.74148 7.86626C-0.0820054 10.6888 -0.80344 14.9579 0.94613 18.4891C4.08852 24.8328 10.189 33.5492 21.4087 39.0509Z" fill="#D7B65D"/>
</g>
<defs>
<clipPath id="clip0_22_3151">
<rect width="40" height="40" fill="white"/>
</clipPath>
</defs>
</svg>
