<svg width="46" height="58" viewBox="0 0 46 58" fill="none" xmlns="http://www.w3.org/2000/svg">
<path d="M26.1858 30.9088C26.5611 33.0536 27.8291 34.9553 29.6647 36.1263C30.9245 36.9301 32.3833 37.3464 33.8546 37.3463C34.2464 37.3463 34.6393 37.3158 35.0294 37.2561L38.0563 48.5524L35.2692 49.2991C33.8328 49.6839 32.9774 51.1658 33.3622 52.6021C33.5487 53.298 33.9949 53.8794 34.6188 54.2396C35.0343 54.4795 35.4954 54.6021 35.9627 54.6021C36.197 54.6021 36.4327 54.5712 36.6652 54.5089L43.8805 52.5756C44.5764 52.3892 45.1579 51.943 45.5181 51.3192C45.8783 50.6953 45.9739 49.9685 45.7875 49.2727C45.601 48.5769 45.1548 47.9954 44.531 47.6353C43.9071 47.275 43.1805 47.1795 42.4845 47.3659L39.6975 48.1126L36.6706 36.8163C38.4185 36.1346 39.8791 34.8346 40.7518 33.1555C41.7559 31.2235 41.9032 28.9426 41.1559 26.8975L40.8155 25.966C40.6544 25.5252 40.1662 25.2986 39.7258 25.4597C39.285 25.6206 39.0584 26.1084 39.2194 26.5492L39.5599 27.4807C40.1525 29.1026 40.0404 30.8396 39.244 32.3719C38.4477 33.9041 37.0904 34.994 35.4225 35.4411C33.7542 35.8877 32.034 35.6226 30.5784 34.6938C29.1226 33.7651 28.157 32.3169 27.8593 30.6159L27.0789 26.1567C27.4759 26.0298 27.7957 26.0171 28.1701 26.0027C28.8329 25.9772 29.5841 25.9485 30.716 25.3326C31.848 24.7165 32.2803 24.1014 32.6616 23.5587C32.9884 23.0937 33.2466 22.7263 34.0291 22.3005C34.8118 21.8746 35.2604 21.8574 35.8284 21.8356C36.2813 21.8182 36.777 21.7984 37.4073 21.5906L37.9475 23.0691C38.1085 23.5097 38.5963 23.7364 39.0372 23.5755C39.478 23.4145 39.7046 22.9267 39.5435 22.4859L35.7298 12.0494C35.3749 11.0782 34.3538 10.5477 33.3548 10.8151L24.8998 13.0805C23.9008 13.3482 23.2819 14.3184 23.4602 15.3372L26.1858 30.9088ZM25.34 14.7216L33.795 12.4562C33.9377 12.418 34.0834 12.4938 34.1342 12.6326L36.8239 19.993C36.4408 20.1109 36.127 20.1235 35.7635 20.1376C35.1007 20.1631 34.3494 20.1919 33.2173 20.8079C32.0853 21.4239 31.653 22.039 31.2717 22.5817C30.9449 23.0468 30.6868 23.4141 29.9042 23.84C29.1218 24.2658 28.6732 24.2829 28.1053 24.3048C27.7168 24.3197 27.2957 24.336 26.7844 24.4723L25.1345 15.0441C25.1089 14.8984 25.1973 14.7599 25.34 14.7216ZM44.0466 50.4694C43.9134 50.7001 43.6982 50.8651 43.4409 50.9342L36.2253 52.8676C35.9679 52.9364 35.6991 52.901 35.4684 52.7679C35.2376 52.6347 35.0726 52.4196 35.0036 52.1621C34.9346 51.9046 34.9699 51.6358 35.1031 51.405C35.2364 51.1743 35.4516 51.0092 35.709 50.9401L42.9244 49.0069C43.0104 48.9839 43.0975 48.9724 43.1842 48.9724C43.357 48.9724 43.5276 49.0177 43.6814 49.1066C43.9121 49.2398 44.0772 49.4549 44.1462 49.7124C44.2151 49.9699 44.1798 50.2387 44.0466 50.4694Z" fill="#D7B65D"/>
<path d="M25.0929 9.59096C25.4185 9.59096 25.7419 9.489 26.0182 9.28816C26.5074 8.93268 26.7477 8.3418 26.6454 7.74606L26.3863 6.23443L27.4844 5.16404C27.9174 4.74207 28.0702 4.12264 27.8834 3.54774C27.6966 2.97284 27.2088 2.56163 26.6107 2.47474L25.093 2.2543L24.4143 0.878949C24.1467 0.336785 23.6049 0 23.0004 0C22.3958 0 21.8541 0.336785 21.5865 0.878949L20.9077 2.2543L19.3902 2.47474C18.792 2.56163 18.3042 2.97284 18.1174 3.54774C17.9306 4.12264 18.0834 4.74207 18.5164 5.16415L19.6145 6.23443L19.3552 7.74606C19.2531 8.34192 19.4934 8.93291 19.9826 9.28816C20.4716 9.64352 21.1078 9.68951 21.6431 9.40823L23.0004 8.69456L24.3578 9.40823C24.5905 9.53058 24.8423 9.59096 25.0929 9.59096ZM22.2666 7.16062L21.0719 7.78865L21.3002 6.45828C21.3878 5.94659 21.2184 5.42493 20.8467 5.06265L19.8802 4.12072L21.2162 3.92655C21.7298 3.85168 22.1736 3.52916 22.4031 3.06403L23.0004 1.85351L23.5977 3.0638C23.8272 3.52905 24.271 3.85156 24.7849 3.92644L26.1207 4.12061L25.1541 5.06265C24.7825 5.42481 24.613 5.94659 24.7007 6.45816L24.9289 7.78854L23.7343 7.16051C23.2748 6.91877 22.7259 6.91877 22.2666 7.16062Z" fill="#D7B65D"/>
<path d="M16.5232 9.54143C16.6888 9.7749 16.9507 9.8994 17.2167 9.8994C17.3867 9.8994 17.5585 9.84842 17.7078 9.7425C18.0904 9.47097 18.1805 8.94058 17.9088 8.55792L15.1851 4.72018C14.9136 4.33763 14.3832 4.24757 14.0005 4.5191C13.6179 4.79064 13.5278 5.32102 13.7995 5.70369L16.5232 9.54143Z" fill="#D7B65D"/>
<path d="M9.81235 11.4301L14.7337 12.8446C14.8121 12.8671 14.8911 12.8779 14.9688 12.8779C15.338 12.8779 15.6779 12.6352 15.785 12.2626C15.9147 11.8118 15.6542 11.341 15.2032 11.2115L10.2818 9.79707C9.83082 9.66713 9.36013 9.92791 9.23054 10.379C9.10095 10.83 9.36138 11.3006 9.81235 11.4301Z" fill="#D7B65D"/>
<path d="M29.2349 10.1734C29.4239 10.1734 29.6142 10.1107 29.772 9.98175L33.9268 6.58671C34.2902 6.2898 34.344 5.75455 34.0471 5.39114C33.7502 5.02796 33.2151 4.97381 32.8516 5.27083L28.6968 8.66587C28.3334 8.96278 28.2796 9.49804 28.5765 9.86144C28.7445 10.0669 28.9886 10.1734 29.2349 10.1734Z" fill="#D7B65D"/>
<path d="M4.84362 30.2962C4.0963 32.3413 4.24356 34.6222 5.24769 36.5542C6.12029 38.2332 7.58094 39.5332 9.32887 40.215L6.30211 51.5112L3.51505 50.7645C2.07899 50.3795 0.597154 51.2351 0.212225 52.6714C0.0257637 53.3672 0.121373 54.094 0.481607 54.7177C0.841842 55.3417 1.42331 55.7879 2.11909 55.9743L9.33454 57.9076C9.56744 57.97 9.80148 57.9998 10.0319 57.9998C11.2225 57.9997 12.315 57.2042 12.6375 56.0008C13.0223 54.5644 12.1669 53.0826 10.7305 52.6978L7.94344 51.9511L10.97 40.6559C11.3648 40.7171 11.7618 40.7486 12.1584 40.7486C13.0033 40.7486 13.8455 40.6098 14.6555 40.3334C15.0995 40.1819 15.3367 39.699 15.1852 39.255C15.0336 38.8108 14.5507 38.5735 14.1067 38.7253C12.9679 39.1138 11.7473 39.1532 10.577 38.8399C8.90894 38.3929 7.55183 37.3029 6.75546 35.7707C5.9591 34.2385 5.84695 32.5015 6.43963 30.8795L7.9934 26.6276C8.40065 26.7162 8.68396 26.8652 9.01542 27.04C9.60211 27.3492 10.2672 27.6999 11.5553 27.7324C12.8434 27.7644 13.5256 27.4483 14.1272 27.169C14.6428 26.9297 15.0499 26.739 15.9408 26.7632C16.8315 26.7856 17.2287 26.9951 17.7314 27.2602C18.1323 27.4714 18.5716 27.7022 19.2213 27.8376L18.1402 34.0147C17.954 35.0787 17.4901 36.0729 16.7985 36.8899C16.4954 37.2481 16.5399 37.7842 16.8981 38.0873C17.0577 38.2223 17.2527 38.2883 17.4466 38.2883C17.6878 38.2883 17.9275 38.1861 18.0956 37.9877C18.9818 36.9407 19.576 35.6681 19.8141 34.3076L22.5393 18.7359C22.7176 17.7171 22.0987 16.7469 21.0996 16.4792L12.6447 14.2138C11.6452 13.9457 10.6246 14.4767 10.2696 15.4481L9.23009 18.2928C9.06901 18.7336 9.29579 19.2214 9.73646 19.3825C10.177 19.543 10.6649 19.3168 10.8261 18.876L11.8656 16.0313C11.9163 15.8925 12.0618 15.8168 12.205 15.8549L20.6598 18.1203C20.8026 18.1586 20.891 18.2971 20.8655 18.4428L19.5147 26.1619C19.1241 26.0724 18.8459 25.9265 18.524 25.7568C17.9372 25.4476 17.2723 25.097 15.9839 25.0643C14.6955 25.0316 14.0136 25.3484 13.412 25.6278C12.8964 25.867 12.4893 26.0579 11.5985 26.0336C10.708 26.0111 10.3109 25.8018 9.80816 25.5367C9.46424 25.3554 9.09155 25.1589 8.58054 25.0214L9.55532 22.354C9.71641 21.9132 9.48962 21.4254 9.04895 21.2644C8.60829 21.1033 8.12039 21.33 7.9593 21.7708L4.84362 30.2962ZM10.2905 54.3392C10.5479 54.4081 10.7631 54.5732 10.8963 54.8041C11.0296 55.0349 11.0649 55.3036 10.996 55.5611C10.8535 56.0923 10.3055 56.4083 9.77418 56.2665L2.55862 54.3331C2.30136 54.2642 2.08624 54.0991 1.9529 53.8682C1.81969 53.6375 1.78434 53.3687 1.85333 53.1113C1.97261 52.666 2.3768 52.3717 2.81724 52.3717C2.90243 52.3717 2.98897 52.3828 3.07507 52.4058L10.2905 54.3392Z" fill="#D7B65D"/>
</svg>
