<svg width="58" height="50" viewBox="0 0 58 50" fill="none" xmlns="http://www.w3.org/2000/svg">
<path d="M37.2295 32.1856V33.3278C37.2295 34.5717 38.2418 35.5838 39.4859 35.5838H44.2464C45.4923 35.5838 46.5061 34.5717 46.5061 33.3278V31.4544C46.5061 30.6154 45.8227 29.9326 44.9826 29.9326H39.4859C38.2418 29.9327 37.2295 30.9433 37.2295 32.1856ZM44.807 33.3278C44.807 33.6296 44.5503 33.8845 44.2465 33.8845H39.4861C39.1788 33.8845 38.9288 33.6348 38.9288 33.3278V32.1856C38.9288 31.8804 39.1788 31.632 39.4861 31.632H44.807V33.3278Z" fill="#D7B65D"/>
<path d="M13.4265 29.9326H7.92988C7.08979 29.9326 6.40625 30.6152 6.40625 31.4544V33.3277C6.40625 34.5716 7.42 35.5837 8.66598 35.5837H13.4264C14.6706 35.5837 15.6829 34.5716 15.6829 33.3277V32.1854C15.683 30.9432 14.6707 29.9326 13.4265 29.9326ZM13.9837 33.3277C13.9837 33.6346 13.7337 33.8844 13.4265 33.8844H8.6661C8.36228 33.8844 8.10558 33.6294 8.10558 33.3277V31.6318H13.4265C13.7337 31.6318 13.9837 31.8801 13.9837 32.1854V33.3277Z" fill="#D7B65D"/>
<path d="M44.3516 15.136C44.8208 15.136 45.2012 14.7557 45.2012 14.2864V6.22266C45.2012 5.75333 44.8208 5.37305 44.3516 5.37305C43.8824 5.37305 43.502 5.75333 43.502 6.22266V14.2864C43.502 14.7556 43.8824 15.136 44.3516 15.136Z" fill="#D7B65D"/>
<path d="M39.7234 6.09139L37.7001 12.1583L35.58 6.06466C35.4258 5.6215 34.9413 5.38758 34.4984 5.54141C34.0552 5.69559 33.821 6.17998 33.9751 6.62314L36.7432 14.5787C36.8908 14.9875 37.2798 15.2606 37.7132 15.2606C37.7163 15.2606 37.7194 15.2606 37.7225 15.2605C38.1599 15.2566 38.5486 14.9756 38.6918 14.5558L41.3354 6.62914C41.4839 6.18394 41.2434 5.70272 40.7982 5.55433C40.3529 5.40604 39.8718 5.6462 39.7234 6.09139Z" fill="#D7B65D"/>
<path d="M49.5264 14.5021V11.8455C50.0171 11.843 50.6045 11.8403 50.9278 11.8403C52.6789 11.8403 54.1036 10.4373 54.1036 8.71294C54.1036 6.99027 52.6789 5.58887 50.9278 5.58887H48.6768C48.2142 5.58887 47.8271 5.97584 47.8271 6.43848V14.5022C47.8271 14.9715 48.2075 15.3518 48.6768 15.3518C49.146 15.3518 49.5264 14.9714 49.5264 14.5021ZM50.9277 7.28809C51.7281 7.28809 52.4043 7.94059 52.4043 8.71294C52.4043 9.4871 51.7281 10.1411 50.9277 10.1411C50.6068 10.1411 50.0273 10.1436 49.538 10.1462C49.5355 9.64275 49.5328 9.04066 49.5328 8.71294C49.5328 8.43732 49.531 7.81337 49.5293 7.28809H50.9277Z" fill="#D7B65D"/>
<path d="M55.1906 0.540039H45.4734C45.0042 0.540039 44.6238 0.920324 44.6238 1.38965C44.6238 1.85897 45.0042 2.23926 45.4734 2.23926H55.1906C55.8028 2.23926 56.3008 2.73509 56.3008 3.34443V16.5707C56.3008 17.1801 55.8028 17.6759 55.1906 17.6759H39.2505C39.0637 17.6759 38.8821 17.7374 38.7338 17.851L33.7953 21.6343C33.5362 21.8336 33.3378 21.8414 33.2823 21.8144C33.2696 21.808 33.2458 21.7549 33.2458 21.655V18.5255C33.2458 18.0562 32.8654 17.6759 32.3962 17.6759H31.9283C31.3143 17.6759 30.8149 17.1801 30.8149 16.5707V3.34443C30.8149 2.73509 31.3143 2.23926 31.9283 2.23926H41.1319C41.6011 2.23926 41.9815 1.85897 41.9815 1.38965C41.9815 0.920324 41.6011 0.540039 41.1319 0.540039H31.9283C30.3774 0.540039 29.1157 1.79803 29.1157 3.34443V8.49612H22.2832C20.4887 8.49612 19.0288 9.95315 19.0288 11.7442V13.2932H13.7798C11.1152 13.2932 9.28102 14.7181 8.61527 17.3056L7.63867 21.1024H3.0646C1.37478 21.1023 0 22.4759 0 24.1644C0 25.8511 1.37478 27.2233 3.0646 27.2233H4.08617C3.07162 28.2484 2.44404 29.6556 2.44404 31.2066V37.6735C1.46982 37.7716 0.706762 38.5951 0.706762 39.5934V41.5808C0.706762 42.5224 1.386 43.3073 2.28058 43.4759V47.3894C2.28058 48.5308 3.21062 49.4595 4.35385 49.4595H11.1101C12.2533 49.4595 13.1833 48.5308 13.1833 47.3894V43.5106H24.5113C24.9806 43.5106 25.361 43.1303 25.361 42.6609C25.361 42.1916 24.9806 41.8113 24.5113 41.8113H2.63923C2.51269 41.8113 2.40587 41.7058 2.40587 41.5808V39.5934C2.40587 39.4683 2.51269 39.3629 2.63923 39.3629H50.2731C50.3996 39.3629 50.5064 39.4685 50.5064 39.5934V41.5808C50.5064 41.7059 50.3996 41.8113 50.2731 41.8113H28.8527C28.3835 41.8113 28.0031 42.1916 28.0031 42.6609C28.0031 43.1303 28.3835 43.5106 28.8527 43.5106H39.7325V47.3894C39.7325 48.5308 40.6611 49.4595 41.8025 49.4595H48.5587C49.7019 49.4595 50.632 48.5308 50.632 47.3894V43.4759C51.5265 43.3073 52.2057 42.5223 52.2057 41.5808V39.5934C52.2057 38.5952 51.4426 37.7716 50.4684 37.6735V31.2066C50.4684 29.6605 49.8444 28.2574 48.8355 27.2331H49.8871C51.5788 27.2331 52.955 25.8594 52.955 24.171C52.955 22.4843 51.5788 21.1121 49.8871 21.1121H45.3142L44.8678 19.3751H55.1906C56.7397 19.3751 58 18.1171 58 16.5707V3.34443C58 1.79814 56.7397 0.540039 55.1906 0.540039ZM11.4839 43.5106V47.3894C11.4839 47.5905 11.3126 47.7603 11.1098 47.7603H4.35374C4.14745 47.7603 3.97968 47.5939 3.97968 47.3894V43.5106H11.4839ZM48.9327 47.3894C48.9327 47.594 48.765 47.7603 48.5587 47.7603H41.8025C41.6015 47.7603 41.4317 47.5905 41.4317 47.3894V43.5106H48.9327V47.3894ZM31.5464 19.3493V21.655C31.5464 22.4056 31.9147 23.0352 32.5315 23.3388C32.7883 23.4652 33.0665 23.5273 33.3523 23.5273C33.8459 23.5273 34.3624 23.3417 34.8299 22.9822L39.5208 19.3886L41.0995 25.534H11.8522C11.8522 25.534 13.6606 18.5024 13.6701 18.4693C13.7007 18.4684 29.8613 18.4679 29.8613 18.4679C30.2942 18.9362 30.8832 19.2592 31.5464 19.3493ZM48.7692 31.2066V37.6637H32.9185L34.5118 33.8442C34.7858 33.1874 34.8852 32.0893 34.2636 31.1563C33.7379 30.3673 32.819 29.9328 31.6763 29.9328H21.236C20.0934 29.9328 19.1744 30.3673 18.6487 31.1563C18.0271 32.0892 18.1265 33.1874 18.4007 33.8445L19.9963 37.6635H4.14326V31.2065C4.14326 29.0154 5.93141 27.233 8.1294 27.233H44.7831C46.981 27.2331 48.7692 29.0155 48.7692 31.2066ZM27.9148 31.6321V37.6637H24.9975V31.6321H27.9148ZM20.7279 11.7441C20.7279 10.8901 21.4256 10.1952 22.2831 10.1952H29.1155V13.2931H20.7279V11.7441ZM10.2609 17.7288C10.7346 15.8874 11.8857 14.9923 13.7796 14.9923H29.1155V16.5707C29.1155 16.6374 29.1202 16.703 29.1247 16.7686H13.7796C12.7126 16.7686 12.2616 17.1212 11.9916 18.1671L10.0978 25.5338H8.25322L10.2609 17.7288ZM1.69922 24.1644C1.69922 23.4129 2.31173 22.8015 3.0646 22.8015H7.20152L6.50121 25.5241H3.0646C2.31173 25.5241 1.69922 24.9141 1.69922 24.1644ZM19.9688 33.19C19.8506 32.9066 19.8434 32.4279 20.0628 32.0987C20.2691 31.7891 20.6639 31.6321 21.236 31.6321H23.2983V37.6637H21.8378L19.9688 33.19ZM29.614 37.6637V31.6321H31.6763C32.2485 31.6321 32.6432 31.7891 32.8495 32.0987C33.0689 32.4279 33.0617 32.9066 32.9436 33.19L31.0774 37.6637H29.614ZM49.887 22.8114C50.6417 22.8114 51.2557 23.4213 51.2557 24.171C51.2557 24.9225 50.6417 25.5338 49.887 25.5338H46.4505L45.7508 22.8114H49.887ZM44.6961 25.5338H42.8541L41.2719 19.3751H43.1133L44.6961 25.5338Z" fill="#D7B65D"/>
</svg>
