<svg width="21" height="21" viewBox="0 0 21 21" fill="none" xmlns="http://www.w3.org/2000/svg">
<path d="M18.334 0.339844H2.33398C1.78732 0.339844 1.31732 0.53651 0.923984 0.929844C0.530651 1.32318 0.333984 1.79318 0.333984 2.33984V18.3398C0.333984 18.8865 0.530651 19.3565 0.923984 19.7498C1.31732 20.1432 1.78732 20.3398 2.33398 20.3398H18.334C18.8807 20.3398 19.3507 20.1432 19.744 19.7498C20.1373 19.3565 20.334 18.8865 20.334 18.3398V2.33984C20.334 1.79318 20.1373 1.32318 19.744 0.929844C19.3507 0.53651 18.8807 0.339844 18.334 0.339844ZM19.534 18.3398C19.534 18.6732 19.4173 18.9565 19.184 19.1898C18.9507 19.4232 18.6673 19.5398 18.334 19.5398H2.33398C2.00065 19.5398 1.71732 19.4232 1.48398 19.1898C1.25065 18.9565 1.13398 18.6732 1.13398 18.3398V2.33984C1.13398 2.00651 1.25065 1.72318 1.48398 1.48984C1.71732 1.25651 2.00065 1.13984 2.33398 1.13984H18.334C18.6673 1.13984 18.9507 1.25651 19.184 1.48984C19.4173 1.72318 19.534 2.00651 19.534 2.33984V18.3398ZM17.134 14.6598V6.01984C17.494 5.80651 17.784 5.51651 18.004 5.14984C18.224 4.78318 18.334 4.38318 18.334 3.94984C18.334 3.51651 18.2273 3.11318 18.014 2.73984C17.8007 2.36651 17.5073 2.07318 17.134 1.85984C16.7607 1.64651 16.3607 1.53984 15.934 1.53984C15.5073 1.53984 15.1073 1.64651 14.734 1.85984C14.3607 2.07318 14.0673 2.36651 13.854 2.73984C13.6407 3.11318 13.534 3.51651 13.534 3.94984C13.534 4.38318 13.644 4.78318 13.864 5.14984C14.084 5.51651 14.374 5.80651 14.734 6.01984V8.73984H11.534V6.01984C11.894 5.80651 12.184 5.51651 12.404 5.14984C12.624 4.78318 12.734 4.38318 12.734 3.94984C12.734 3.51651 12.6273 3.11318 12.414 2.73984C12.2007 2.36651 11.9073 2.07318 11.534 1.85984C11.1607 1.64651 10.7607 1.53984 10.334 1.53984C9.90732 1.53984 9.50732 1.64651 9.13398 1.85984C8.76065 2.07318 8.46732 2.36651 8.25398 2.73984C8.04065 3.11318 7.93398 3.51651 7.93398 3.94984C7.93398 4.38318 8.04398 4.78318 8.26398 5.14984C8.48398 5.51651 8.77398 5.80651 9.13398 6.01984V8.73984H5.93398V6.01984C6.29398 5.80651 6.58398 5.51651 6.80398 5.14984C7.02398 4.78318 7.13398 4.38318 7.13398 3.94984C7.13398 3.51651 7.02732 3.11318 6.81398 2.73984C6.60065 2.36651 6.30732 2.07318 5.93398 1.85984C5.56065 1.64651 5.16065 1.53984 4.73398 1.53984C4.30732 1.53984 3.90732 1.64651 3.53398 1.85984C3.16065 2.07318 2.86732 2.36651 2.65398 2.73984C2.44065 3.11318 2.33398 3.51651 2.33398 3.94984C2.33398 4.38318 2.44398 4.78318 2.66398 5.14984C2.88398 5.51651 3.17398 5.80651 3.53398 6.01984V10.7398C3.53398 10.8465 3.57398 10.9398 3.65398 11.0198C3.73398 11.0998 3.82732 11.1398 3.93398 11.1398H9.13398V14.6598C8.77398 14.8732 8.48398 15.1632 8.26398 15.5298C8.04398 15.8965 7.93398 16.2965 7.93398 16.7298C7.93398 17.1632 8.04065 17.5665 8.25398 17.9398C8.46732 18.3132 8.76065 18.6065 9.13398 18.8198C9.50732 19.0332 9.90732 19.1398 10.334 19.1398C10.7607 19.1398 11.1607 19.0332 11.534 18.8198C11.9073 18.6065 12.2007 18.3132 12.414 17.9398C12.6273 17.5665 12.734 17.1632 12.734 16.7298C12.734 16.2965 12.624 15.8965 12.404 15.5298C12.184 15.1632 11.894 14.8732 11.534 14.6598V11.1398H14.734V14.6598C14.374 14.8732 14.084 15.1632 13.864 15.5298C13.644 15.8965 13.534 16.2965 13.534 16.7298C13.534 17.1632 13.6407 17.5665 13.854 17.9398C14.0673 18.3132 14.3607 18.6065 14.734 18.8198C15.1073 19.0332 15.5073 19.1398 15.934 19.1398C16.3607 19.1398 16.7607 19.0332 17.134 18.8198C17.5073 18.6065 17.8007 18.3132 18.014 17.9398C18.2273 17.5665 18.334 17.1632 18.334 16.7298C18.334 16.2965 18.224 15.8965 18.004 15.5298C17.784 15.1632 17.494 14.8732 17.134 14.6598ZM14.334 3.93984C14.334 3.49984 14.4907 3.12318 14.804 2.80984C15.1173 2.49651 15.494 2.33984 15.934 2.33984C16.374 2.33984 16.7507 2.49651 17.064 2.80984C17.3773 3.12318 17.534 3.49984 17.534 3.93984C17.534 4.37984 17.3773 4.75651 17.064 5.06984C16.7507 5.38318 16.374 5.53984 15.934 5.53984C15.494 5.53984 15.1173 5.38318 14.804 5.06984C14.4907 4.75651 14.334 4.37984 14.334 3.93984ZM8.73398 3.93984C8.73398 3.49984 8.89065 3.12318 9.20398 2.80984C9.51732 2.49651 9.89398 2.33984 10.334 2.33984C10.774 2.33984 11.1507 2.49651 11.464 2.80984C11.7773 3.12318 11.934 3.49984 11.934 3.93984C11.934 4.37984 11.7773 4.75651 11.464 5.06984C11.1507 5.38318 10.774 5.53984 10.334 5.53984C9.89398 5.53984 9.51732 5.38318 9.20398 5.06984C8.89065 4.75651 8.73398 4.37984 8.73398 3.93984ZM3.13398 3.93984C3.13398 3.49984 3.29065 3.12318 3.60398 2.80984C3.91732 2.49651 4.29398 2.33984 4.73398 2.33984C5.17398 2.33984 5.55065 2.49651 5.86398 2.80984C6.17732 3.12318 6.33398 3.49984 6.33398 3.93984C6.33398 4.37984 6.17732 4.75651 5.86398 5.06984C5.55065 5.38318 5.17398 5.53984 4.73398 5.53984C4.29398 5.53984 3.91732 5.38318 3.60398 5.06984C3.29065 4.75651 3.13398 4.37984 3.13398 3.93984ZM11.934 16.7398C11.934 17.1798 11.7773 17.5565 11.464 17.8698C11.1507 18.1832 10.774 18.3398 10.334 18.3398C9.89398 18.3398 9.51732 18.1832 9.20398 17.8698C8.89065 17.5565 8.73398 17.1798 8.73398 16.7398C8.73398 16.2998 8.89065 15.9232 9.20398 15.6098C9.51732 15.2965 9.89398 15.1398 10.334 15.1398C10.774 15.1398 11.1507 15.2965 11.464 15.6098C11.7773 15.9232 11.934 16.2998 11.934 16.7398ZM11.134 10.3398C11.0273 10.3398 10.934 10.3798 10.854 10.4598C10.774 10.5398 10.734 10.6332 10.734 10.7398V14.3798C10.574 14.3532 10.4473 14.3398 10.354 14.3398C10.2607 14.3398 10.134 14.3532 9.97398 14.3798H9.93398V10.7398C9.93398 10.6332 9.89398 10.5398 9.81398 10.4598C9.73398 10.3798 9.64065 10.3398 9.53398 10.3398H4.33398V6.29984H4.37398C4.53398 6.32651 4.66065 6.33984 4.75398 6.33984C4.84732 6.33984 4.97398 6.32651 5.13398 6.29984V9.13984C5.13398 9.24651 5.17398 9.33984 5.25398 9.41984C5.33398 9.49984 5.42732 9.53984 5.53398 9.53984H9.53398C9.64065 9.53984 9.73398 9.49984 9.81398 9.41984C9.89398 9.33984 9.93398 9.24651 9.93398 9.13984V6.29984H9.97398C10.134 6.32651 10.2607 6.33984 10.354 6.33984C10.4473 6.33984 10.574 6.32651 10.734 6.29984V9.13984C10.734 9.24651 10.774 9.33984 10.854 9.41984C10.934 9.49984 11.0273 9.53984 11.134 9.53984H15.134C15.2407 9.53984 15.334 9.49984 15.414 9.41984C15.494 9.33984 15.534 9.24651 15.534 9.13984V6.29984H15.574C15.734 6.32651 15.8607 6.33984 15.954 6.33984C16.0473 6.33984 16.174 6.32651 16.334 6.29984V14.3798C16.174 14.3532 16.0473 14.3398 15.954 14.3398C15.8607 14.3398 15.734 14.3532 15.574 14.3798H15.534V10.7398C15.534 10.6332 15.494 10.5398 15.414 10.4598C15.334 10.3798 15.2407 10.3398 15.134 10.3398H11.134ZM15.934 18.3398C15.494 18.3398 15.1173 18.1832 14.804 17.8698C14.4907 17.5565 14.334 17.1798 14.334 16.7398C14.334 16.2998 14.4907 15.9232 14.804 15.6098C15.1173 15.2965 15.494 15.1398 15.934 15.1398C16.374 15.1398 16.7507 15.2965 17.064 15.6098C17.3773 15.9232 17.534 16.2998 17.534 16.7398C17.534 17.1798 17.3773 17.5565 17.064 17.8698C16.7507 18.1832 16.374 18.3398 15.934 18.3398Z" fill="#D7B65D"/>
</svg>
