<svg width="17" height="21" viewBox="0 0 17 21" fill="none" xmlns="http://www.w3.org/2000/svg">
<path d="M16.5866 15.7195C16.3066 15.3861 15.9066 15.1461 15.3866 14.9995C15.7599 13.9995 15.8366 12.7361 15.6166 11.2095C15.3966 9.6828 14.8932 7.98613 14.1066 6.11946C13.7332 5.35946 12.4732 4.84613 10.3266 4.57946L9.92658 4.55946V3.65946H12.8066C12.9799 3.65946 13.1066 3.58613 13.1866 3.43946C13.3599 3.10613 13.4266 2.7328 13.3866 2.31946C13.3466 1.90613 13.2166 1.5228 12.9966 1.16946C12.7766 0.81613 12.4999 0.552797 12.1666 0.379463C12.0866 0.352797 12.0199 0.339464 11.9666 0.339464H5.30658C5.26658 0.339464 5.20658 0.352797 5.12658 0.379463C4.80658 0.539463 4.53992 0.799463 4.32658 1.15946C4.13992 1.4928 4.02325 1.8628 3.97658 2.26946C3.92992 2.67613 3.96658 3.04613 4.08658 3.37946C4.11325 3.4728 4.16325 3.5428 4.23658 3.58946C4.30992 3.63613 4.39325 3.65946 4.48658 3.65946H7.42658V4.55946C6.47992 4.63946 5.66658 4.7928 4.98658 5.01946C4.22658 5.2728 3.67325 5.6128 3.32658 6.03946L3.26658 6.13946C1.59992 10.0995 1.17992 13.0261 2.00658 14.9195C1.45992 15.0128 1.01992 15.2928 0.686583 15.7595C0.43325 16.1461 0.319916 16.6028 0.346583 17.1295C0.37325 17.6561 0.53325 18.1595 0.826583 18.6395C1.19992 19.2395 1.70992 19.6895 2.35658 19.9895C3.00325 20.2895 3.71325 20.3995 4.48658 20.3195H12.7866C12.8799 20.3328 13.0199 20.3395 13.2066 20.3395C13.8332 20.3395 14.4332 20.1861 15.0066 19.8795C15.5399 19.5995 15.9832 19.2195 16.3366 18.7395C16.6899 18.2595 16.8999 17.7595 16.9666 17.2395C17.0466 16.6395 16.9199 16.1328 16.5866 15.7195ZM4.80658 2.83946C4.76658 2.51946 4.80325 2.19946 4.91658 1.87946C5.02992 1.55946 5.19992 1.32613 5.42658 1.17946H11.8666C12.1199 1.32613 12.3099 1.56613 12.4366 1.89946C12.5632 2.2328 12.5866 2.54613 12.5066 2.83946H4.80658ZM9.08658 3.65946V4.49946H8.24658V3.65946H9.08658ZM10.2466 5.41946C11.0466 5.49946 11.7332 5.6328 12.3066 5.81946C12.7999 5.9928 13.1266 6.1728 13.2866 6.35946L9.74658 9.91946H7.58658L4.10658 6.41946C4.59992 5.96613 5.46658 5.64613 6.70658 5.45946C7.83992 5.29946 9.01992 5.28613 10.2466 5.41946ZM12.0666 15.9195C10.8799 15.6528 9.75992 15.5195 8.70658 15.5195C7.59992 15.5195 6.45325 15.6595 5.26658 15.9395L7.68658 10.7395H9.64658L12.0666 15.9195ZM4.08658 19.4995C3.40658 19.5128 2.81992 19.3528 2.32658 19.0195C1.99325 18.7928 1.72658 18.5161 1.52658 18.1895C1.32658 17.8628 1.21325 17.5161 1.18658 17.1495C1.15992 16.7828 1.22658 16.4728 1.38658 16.2195C1.59992 15.8861 1.96658 15.7195 2.48658 15.7195C2.88658 16.2395 3.41992 16.6195 4.08658 16.8595V19.4995ZM4.28658 16.0395C3.61992 15.7728 3.12658 15.3261 2.80658 14.6995C2.44658 13.9261 2.34325 12.9095 2.49658 11.6495C2.64992 10.3895 3.05992 8.9128 3.72658 7.21946L6.92658 10.4195L4.28658 16.0395ZM12.4066 19.4795H4.92658V16.8795C6.21992 16.5461 7.46325 16.3761 8.65658 16.3695C9.84992 16.3628 11.0999 16.5261 12.4066 16.8595V19.4795ZM13.0866 16.1195L10.4066 10.4195L13.6466 7.17946C14.3532 8.9928 14.7632 10.6128 14.8766 12.0395C14.9899 13.4661 14.7999 14.5595 14.3066 15.3195C13.9732 15.8128 13.5666 16.0795 13.0866 16.1195ZM16.1466 17.1395C16.0932 17.4995 15.9366 17.8628 15.6766 18.2295C15.4166 18.5961 15.0866 18.8928 14.6866 19.1195C14.2332 19.3728 13.7532 19.4995 13.2466 19.4995V16.9395C13.9532 16.8328 14.5332 16.4461 14.9866 15.7795C14.9999 15.7795 15.0066 15.7728 15.0066 15.7595C15.4466 15.8395 15.7532 15.9928 15.9266 16.2195C16.0999 16.4461 16.1732 16.7528 16.1466 17.1395Z" fill="#D7B65D"/>
</svg>
